<svg width="53" height="42" viewBox="0 0 53 42" fill="none" xmlns="http://www.w3.org/2000/svg">
<path fill-rule="evenodd" clip-rule="evenodd" d="M26.5849 40.284C37.4328 40.284 46.2269 31.49 46.2269 20.642C46.2269 9.79402 37.4328 1 26.5849 1C15.7369 1 6.94287 9.79402 6.94287 20.642C6.94287 31.49 15.7369 40.284 26.5849 40.284ZM47.2269 20.642C47.2269 32.0422 37.9851 41.284 26.5849 41.284C15.1846 41.284 5.94287 32.0422 5.94287 20.642C5.94287 9.24173 15.1846 0 26.5849 0C37.9851 0 47.2269 9.24173 47.2269 20.642Z" fill="url(#paint0_linear_2_99)"/>
<path fill-rule="evenodd" clip-rule="evenodd" d="M5.37314 6.71829C3.39095 7.53371 2.00971 8.74208 1.36206 10.3167C0.751353 11.8014 0.833301 13.513 1.54427 15.3586C2.25602 17.2062 3.5927 19.1711 5.4602 21.1346C9.19467 25.0612 15.012 28.9408 22.0302 31.8276C29.0485 34.7143 35.912 36.0504 41.3284 35.8877C44.037 35.8064 46.3693 35.3507 48.1751 34.5385C49.9788 33.7273 51.2413 32.5687 51.852 31.0839C52.4996 29.5096 52.3684 27.6794 51.5339 25.7056C50.6988 23.7303 49.3778 21.7804 47.2644 19.702L47.2644 18.9876C49.4135 21.1011 51.2124 23.4003 52.088 25.4713C52.9642 27.5438 53.1347 29.5469 52.4084 31.3128C51.7237 32.9775 50.3237 34.2318 48.4218 35.0872C46.522 35.9417 44.1056 36.4062 41.3465 36.4891C35.8275 36.6548 28.8792 35.2951 21.8014 32.3839C14.7236 29.4727 8.8295 25.5502 5.02429 21.5492C3.12195 19.549 1.73173 17.5188 0.982891 15.5749C0.233273 13.6289 0.120958 11.7526 0.805697 10.0878C1.53212 8.32172 3.06297 7.01814 5.14427 6.16194C7.22407 5.30636 10.1471 4.95264 13.1619 4.96306L12.5603 5.48945C9.59552 5.47921 7.35682 5.90225 5.37314 6.71829Z" fill="url(#paint1_linear_2_99)"/>
<defs>
<linearGradient id="paint0_linear_2_99" x1="30.1987" y1="11.9682" x2="21.8014" y2="32.3839" gradientUnits="userSpaceOnUse">
<stop stop-color="#6C2CBC"/>
<stop offset="1" stop-color="#BD56BE"/>
</linearGradient>
<linearGradient id="paint1_linear_2_99" x1="30.1987" y1="11.9682" x2="21.8014" y2="32.3839" gradientUnits="userSpaceOnUse">
<stop stop-color="#6C2CBC"/>
<stop offset="1" stop-color="#BD56BE"/>
</linearGradient>
</defs>
</svg>
